# WaveFront *.obj file (generated by CINEMA 4D)

mtllib ./video_arrows_LEFT.mtl

v 2784.18041992187500 -668.57086181640625 281.83593750000000
v 2880.84497070312500 -665.34869384765625 281.83593750000000
v 1236.84887695312500 -229.45001220703125 -401.48480224609375
v 1296.35852050781250 -219.28251647949219 -401.64773559570312
v 1324.60046386718750 -186.09179687500000 -401.90274047851562
v 1339.96423339843750 -99.72327423095703 -391.84634399414062
v 1395.58593750000000 -0.98252558708191 -342.75045776367188
v 1520.19567871093750 66.24198150634766 -292.62747192382812
v 1627.51391601562500 69.68431854248047 -291.22384643554688
v 1725.28576660156250 71.52816009521484 -291.21179199218750
v 1822.37023925781250 73.35842895507812 -291.21264648437500
v 1906.16271972656250 90.43856048583984 -327.72232055664062
v 1912.43261718750000 99.91372680664062 -337.09326171875000
v 1940.67968750000000 204.42478942871094 -339.46060180664062
v 2001.90222167968750 263.04455566406250 -332.42391967773438
v 2015.17724609375000 273.60867309570312 -293.02490234375000
v 2055.46215820312500 280.43667602539062 -208.74861145019531
v 2093.33496093750000 287.66082763671875 -121.15006256103516
v 2590.07568359375000 -675.02911376953125 281.83596801757812
v 2687.51586914062500 -671.79302978515625 281.83593750000000
v 1244.47802734375000 -380.66659545898438 -418.51519775390625
v 1371.62292480468750 -350.70141601562500 -418.35226440429688
v 1466.33020019531250 -239.61851501464844 -418.09725952148438
v 1486.00622558593750 -138.17001342773438 -412.05242919921875
v 1516.61694335937500 -83.93885040283203 -383.79251098632812
v 1545.89208984375000 -63.18995666503906 -368.79675292968750
v 1631.82104492187500 -61.39497756958008 -368.77615356445312
v 1727.45129394531250 -59.58972930908203 -368.78820800781250
v 1823.76879882812500 -57.77090454101562 -368.78735351562500
v 1904.25012207031250 -37.10349273681641 -411.05334472656250
v 1956.60839843750000 101.18599700927734 -482.90673828125000
v 1980.35119628906250 179.27230834960938 -484.40274047851562
v 2055.84204101562500 241.98335266113281 -473.35522460937500
v 2145.22900390625000 224.25675964355469 -355.19906616210938
v 2188.12817382812500 231.44041442871094 -265.43896484375000
v 2226.82250976562500 238.80113220214844 -175.99957275390625
v 2265.20507812500000 246.10295104980469 -87.24672698974609
v 2303.26464843750000 253.35542297363281 0.76301229000092
v 2324.89013671875000 258.73089599609375 56.34896469116211
v 2325.70629882812500 162.90319824218750 56.16841888427734
v 2326.53247070312500 67.08186340332031 56.01333999633789
v 2327.36889648437500 -28.73395729064941 55.88387298583984
v 2328.24755859375000 -124.81911468505859 55.80838012695312
v 2329.20605468750000 -221.55296325683594 55.80904388427734
v 2330.16455078125000 -318.28680419921875 55.80979919433594
v 2331.12329101562500 -415.02062988281250 55.81065750122070
v 2339.33081054687500 -510.01480102539062 63.16411590576172
v 2378.92333984375000 -580.52844238281250 95.84487152099609
v 2434.73608398437500 -619.63433837890625 127.59000396728516
v 2494.09863281250000 -627.51757812500000 138.17094421386719
v 2589.93701171875000 -624.30383300781250 138.16404724121094
v 2685.82592773437500 -621.09558105468750 138.16406250000000
v 2782.49047851562500 -617.87341308593750 138.16406250000000
v 2879.15502929687500 -614.65130615234375 138.16406250000000
v 2131.51928710937500 294.94387817382812 -32.86494445800781
v 2170.02685546875000 302.27624511718750 56.16326141357422
v 2216.86206054687500 264.29055786132812 163.65103149414062
v 2217.96118164062500 166.69131469726562 163.83157348632812
v 2219.05004882812500 69.08568572998047 163.98666381835938
v 2220.12890625000000 -28.52545356750488 164.11613464355469
v 2221.16503906250000 -125.86725616455078 164.19161987304688
v 2222.12182617187500 -222.56037902832031 164.19096374511719
v 2223.07836914062500 -319.25350952148438 164.19020080566406
v 2224.03491210937500 -415.94662475585938 164.18934631347656
v 2232.42944335937500 -511.51934814453125 171.72062683105469
v 2279.87329101562500 -595.94042968750000 210.58911132812500
v 2366.80664062500000 -657.34259033203125 258.65640258789062
v 2492.58520507812500 -678.25958251953125 281.82904052734375
# 68 vertices

vn 0.17153403162956 0.96879696846008 -0.17890915274620
vn 0.26425626873970 0.94408482313156 -0.19716092944145
vn 0.26634734869003 0.94435644149780 -0.19300258159637
vn 0.26644226908684 0.94432950019836 -0.19300346076488
vn 0.22846959531307 0.97022235393524 -0.08043780177832
vn 0.18709872663021 0.98177605867386 0.03331338614225
vn 0.70591688156128 0.00693760486320 0.70826071500778
vn 0.70688647031784 0.00696886284277 0.70729273557663
vn 0.70871281623840 0.00696899835020 0.70546269416809
vn 0.71020764112473 0.00700019812211 0.70395743846893
vn 0.71107810735703 0.00703140394762 0.70307791233063
vn 0.71129554510117 0.00703139137477 0.70285785198212
vn 0.70992243289948 0.06162640452385 0.70157849788666
vn 0.66104269027710 0.36294376850128 0.65673011541367
vn 0.47047337889671 0.72344464063644 0.50525498390198
vn 0.21941094100475 0.89926916360855 0.37838310003281
vn 0.02506260387599 0.94347268342972 0.33050137758255
vn -0.03140693530440 0.94248938560486 0.33275726437569
vn -0.03140655532479 0.94244664907455 0.33287823200226
vn -0.03140715137124 0.94243335723877 0.33291584253311
vn -0.01343768462539 0.11153278499842 -0.99366992712021
vn -0.05653164908290 0.09256315231323 -0.99410068988800
vn -0.09000250697136 0.08890872448683 -0.99196511507034
vn -0.04453135281801 0.28328192234039 -0.95800226926804
vn 0.03543784469366 0.48506721854210 -0.87375849485397
vn 0.03012554533780 0.51247799396515 -0.85817176103592
vn -0.00862526521087 0.50832813978195 -0.86112028360367
vn -0.00959380809218 0.50903433561325 -0.86069273948669
vn -0.24534966051579 0.50257462263107 -0.82898873090744
vn -0.73629325628281 0.36866226792336 -0.56741553544998
vn -0.92127126455307 0.24288059771061 -0.30375701189041
vn -0.79770350456238 0.51444780826569 -0.31466257572174
vn -0.28544482588768 0.92424237728119 -0.25356900691986
# 33 normals

vt 0.62264150381088 0.00000000000000 0.00000000000000
vt 0.62264150381088 1.00000000000000 0.00000000000000
vt 0.64150941371918 1.00000000000000 0.00000000000000
vt 0.64150941371918 0.00000000000000 0.00000000000000
vt 0.66037738323212 1.00000000000000 0.00000000000000
vt 0.66037738323212 0.00000000000000 0.00000000000000
vt 0.67924529314041 1.00000000000000 0.00000000000000
vt 0.67924529314041 0.00000000000000 0.00000000000000
vt 0.69811320304871 1.00000000000000 0.00000000000000
vt 0.69811320304871 0.00000000000000 0.00000000000000
vt 0.71698111295700 1.00000000000000 0.00000000000000
vt 0.71698111295700 0.00000000000000 0.00000000000000
vt 0.73584908246994 1.00000000000000 0.00000000000000
vt 0.73584908246994 0.00000000000000 0.00000000000000
vt 0.75471699237823 1.00000000000000 0.00000000000000
vt 0.75471699237823 0.00000000000000 0.00000000000000
vt 0.77358490228653 1.00000000000000 0.00000000000000
vt 0.77358490228653 0.00000000000000 0.00000000000000
vt 0.79245281219482 1.00000000000000 0.00000000000000
vt 0.79245281219482 0.00000000000000 0.00000000000000
vt 0.81132078170776 1.00000000000000 0.00000000000000
vt 0.81132078170776 0.00000000000000 0.00000000000000
vt 0.83018869161606 1.00000000000000 0.00000000000000
vt 0.83018869161606 0.00000000000000 0.00000000000000
vt 0.84905660152435 1.00000000000000 0.00000000000000
vt 0.84905660152435 0.00000000000000 0.00000000000000
vt 0.86792451143265 1.00000000000000 0.00000000000000
vt 0.86792451143265 0.00000000000000 0.00000000000000
vt 0.88679248094559 1.00000000000000 0.00000000000000
vt 0.88679248094559 0.00000000000000 0.00000000000000
vt 0.90566039085388 1.00000000000000 0.00000000000000
vt 0.90566039085388 0.00000000000000 0.00000000000000
vt 0.92452830076218 1.00000000000000 0.00000000000000
vt 0.92452830076218 0.00000000000000 0.00000000000000
vt 0.94339621067047 1.00000000000000 0.00000000000000
vt 0.94339621067047 0.00000000000000 0.00000000000000
vt 0.96226418018341 1.00000000000000 0.00000000000000
vt 0.96226418018341 0.00000000000000 0.00000000000000
vt 0.98113209009171 1.00000000000000 0.00000000000000
vt 0.98113209009171 0.00000000000000 0.00000000000000
vt 1.00000000000000 1.00000000000000 0.00000000000000
vt 1.00000000000000 0.00000000000000 0.00000000000000
vt 0.37735849618912 0.00000000000000 0.00000000000000
vt 0.37735849618912 1.00000000000000 0.00000000000000
vt 0.39622640609741 1.00000000000000 0.00000000000000
vt 0.39622640609741 0.00000000000000 0.00000000000000
vt 0.41509434580803 1.00000000000000 0.00000000000000
vt 0.41509434580803 0.00000000000000 0.00000000000000
vt 0.43396225571632 1.00000000000000 0.00000000000000
vt 0.43396225571632 0.00000000000000 0.00000000000000
vt 0.45283019542694 1.00000000000000 0.00000000000000
vt 0.45283019542694 0.00000000000000 0.00000000000000
vt 0.47169810533524 1.00000000000000 0.00000000000000
vt 0.47169810533524 0.00000000000000 0.00000000000000
vt 0.49056604504585 1.00000000000000 0.00000000000000
vt 0.49056604504585 0.00000000000000 0.00000000000000
vt 0.50943398475647 1.00000000000000 0.00000000000000
vt 0.50943398475647 0.00000000000000 0.00000000000000
vt 0.52830189466476 1.00000000000000 0.00000000000000
vt 0.52830189466476 0.00000000000000 0.00000000000000
vt 0.54716980457306 1.00000000000000 0.00000000000000
vt 0.54716980457306 0.00000000000000 0.00000000000000
vt 0.56603771448135 1.00000000000000 0.00000000000000
vt 0.56603771448135 0.00000000000000 0.00000000000000
vt 0.58490568399429 1.00000000000000 0.00000000000000
vt 0.58490568399429 0.00000000000000 0.00000000000000
vt 0.60377359390259 1.00000000000000 0.00000000000000
vt 0.60377359390259 0.00000000000000 0.00000000000000
# 68 texture coordinates

g arrrow_left
usemtl default
f 34/1/1 16/2/1 17/3/2 35/4/2
f 35/4/2 17/3/2 18/5/3 36/6/3
f 36/6/3 18/5/3 55/7/4 37/8/4
f 37/8/4 55/7/4 56/9/5 38/10/5
f 38/10/5 56/9/5 57/11/6 39/12/6
f 39/12/7 57/11/7 58/13/8 40/14/8
f 40/14/8 58/13/8 59/15/9 41/16/9
f 41/16/9 59/15/9 60/17/10 42/18/10
f 42/18/10 60/17/10 61/19/11 43/20/11
f 43/20/11 61/19/11 62/21/12 44/22/12
f 44/22/12 62/21/12 63/23/12 45/24/12
f 45/24/12 63/23/12 64/25/13 46/26/13
f 46/26/13 64/25/13 65/27/14 47/28/14
f 47/28/14 65/27/14 66/29/15 48/30/15
f 48/30/15 66/29/15 67/31/16 49/32/16
f 49/32/16 67/31/16 68/33/17 50/34/17
f 50/34/17 68/33/17 19/35/18 51/36/18
f 51/36/18 19/35/18 20/37/19 52/38/19
f 52/38/19 20/37/19 1/39/20 53/40/20
f 53/40/20 1/39/20 2/41/20 54/42/20
f 21/43/21 3/44/21 4/45/22 22/46/22
f 22/46/22 4/45/22 5/47/23 23/48/23
f 23/48/23 5/47/23 6/49/24 24/50/24
f 24/50/24 6/49/24 7/51/25 25/52/25
f 25/52/25 7/51/25 8/53/26 26/54/26
f 26/54/26 8/53/26 9/55/27 27/56/27
f 27/56/27 9/55/27 10/57/28 28/58/28
f 28/58/28 10/57/28 11/59/29 29/60/29
f 29/60/29 11/59/29 12/61/30 30/62/30
f 30/62/30 12/61/30 13/63/31 31/64/31
f 31/64/31 13/63/31 14/65/32 32/66/32
f 32/66/32 14/65/32 15/67/33 33/68/33
f 33/68/33 15/67/33 16/2/1 34/1/1

